<svg height="502.624pt" viewBox="0 0 502.624 502.624" width="502.624pt" xmlns="http://www.w3.org/2000/svg"><path d="m480.03125 224.03125c7.199219 7.199219 11.28125 17.039062 11.28125 27.28125 0 10.238281-4.082031 20.078125-11.28125 27.28125l-20.71875 20.71875-32-16-72 72 16 32-28.71875 28.71875c-7.203125 7.199219-17.042969 11.28125-27.28125 11.28125-10.242188 0-20.082031-4.082031-27.28125-11.28125l-201.4375-201.4375c-7.203125-7.203125-11.28125-17.042969-11.28125-27.28125 0-10.242188 4.078125-20.082031 11.28125-27.28125l28.71875-28.71875 32 16 72-72-16-32 20.71875-20.71875c7.199219-7.203125 17.039062-11.28125 27.28125-11.28125 10.238281 0 20.078125 4.078125 27.28125 11.28125zm0 0" fill="#838f9b"/><path d="m427.308594 171.308594 24-24 40 40-24 24zm0 0" fill="#ccd1d9"/><path d="m459.3125 299.3125-88 88-16-32 72-72zm0 0" fill="#fcd770"/><path d="m283.3125 115.3125c57.441406 0 104 46.558594 104 104s-46.558594 104-104 104-104-46.558594-104-104 46.558594-104 104-104zm0 0" fill="#69d6f4"/><path d="m291.308594 35.308594 24.003906-24 39.996094 40-24 24zm0 0" fill="#ccd1d9"/><path d="m283.3125 163.3125c30.960938 0 56 25.039062 56 56s-25.039062 56-56 56-56-25.039062-56-56 25.039062-56 56-56zm0 0" fill="#3bafda"/><path d="m307.3125 219.3125c0 13.253906-10.746094 24-24 24s-24-10.746094-24-24 10.746094-24 24-24 24 10.746094 24 24zm0 0" fill="#4fc1e9"/><path d="m244.671875 372.671875-137.359375-137.359375-96 96 160 160 96-96zm0 0" fill="#e6e9ed"/><path d="m56.589844 331.308594 73.359375-73.355469 114.71875 114.71875-73.359375 73.359375zm0 0" fill="#b4dd7f"/><path d="m203.3125 43.3125 16 32-72 72-32-16zm0 0" fill="#fcd770"/><g fill="#1e1713"><path d="m478.625 211.3125 24-24-51.3125-51.3125-24 24-84.6875-84.6875 24-24-51.3125-51.3125-24 24-7.03125-7.03125c-8.679688-8.679688-20.695312-13.65625-32.96875-13.65625s-24.289062 4.976562-32.96875 13.65625l-137.375 137.375c-8.679688 8.679688-13.65625 20.695312-13.65625 32.96875s4.976562 24.289062 13.65625 32.96875l15.03125 15.03125-96 96 171.3125 171.3125 96-96 15.03125 15.03125c8.679688 8.679688 20.695312 13.65625 32.96875 13.65625s24.289062-4.976562 32.96875-13.65625l137.375-137.375c8.679688-8.679688 13.65625-20.695312 13.65625-32.96875s-4.976562-24.289062-13.65625-32.96875zm-27.3125-52.6875 28.6875 28.6875-12.6875 12.6875-28.6875-28.6875zm-136-136 28.6875 28.6875-12.6875 12.6875-28.6875-28.6875zm-105.738281 51.109375-63.839844 63.839844-16.917969-8.453125 72.304688-72.304688zm-38.261719 406.265625-148.6875-148.6875 84.6875-84.6875 11.3125 11.3125-73.367188 73.375 126.054688 126.054688 73.375-73.367188 11.3125 11.3125zm62.0625-107.3125-62.0625 62.054688-103.433594-103.429688 62.058594-62.066406zm131.671875-15.800781 63.839844-63.839844 16.921875 8.457031-72.304688 72.304688zm109.296875-83.917969-16.609375 16.605469-32-16-80.160156 80.160156 16 32-24.605469 24.609375c-5.703125 5.703125-13.59375 8.96875-21.65625 8.96875-8.066406 0-15.953125-3.265625-21.65625-8.96875l-201.375-201.375c-5.707031-5.703125-8.96875-13.59375-8.96875-21.65625 0-8.066406 3.261719-15.953125 8.96875-21.65625l24.605469-24.609375 32 16 80.160156-80.160156-16-32 16.609375-16.605469c5.703125-5.707031 13.589844-8.96875 21.65625-8.96875 8.0625 0 15.953125 3.261719 21.65625 8.96875l201.375 201.375c5.703125 5.703125 8.96875 13.589844 8.96875 21.65625 0 8.0625-3.265625 15.953125-8.96875 21.65625zm0 0"/><path d="m283.3125 107.3125c-61.761719 0-112 50.238281-112 112 0 61.757812 50.238281 112 112 112 61.757812 0 112-50.242188 112-112 0-61.761719-50.242188-112-112-112zm0 208c-52.9375 0-96-43.066406-96-96 0-52.9375 43.0625-96 96-96 52.933594 0 96 43.0625 96 96 0 52.933594-43.066406 96-96 96zm0 0"/><path d="m283.3125 155.3125c-35.289062 0-64 28.710938-64 64s28.710938 64 64 64 64-28.710938 64-64-28.710938-64-64-64zm0 112c-26.472656 0-48-21.527344-48-48s21.527344-48 48-48 48 21.527344 48 48-21.527344 48-48 48zm0 0"/><path d="m283.3125 187.3125c-17.648438 0-32 14.351562-32 32s14.351562 32 32 32 32-14.351562 32-32-14.351562-32-32-32zm0 48c-8.824219 0-16-7.175781-16-16s7.175781-16 16-16 16 7.175781 16 16-7.175781 16-16 16zm0 0"/><path d="m323.3125 395.3125c0 4.417969-3.582031 8-8 8s-8-3.582031-8-8 3.582031-8 8-8 8 3.582031 8 8zm0 0"/><path d="m115.3125 187.3125c0 4.417969-3.582031 8-8 8s-8-3.582031-8-8 3.582031-8 8-8 8 3.582031 8 8zm0 0"/><path d="m467.3125 251.3125c0 4.417969-3.582031 8-8 8s-8-3.582031-8-8 3.582031-8 8-8 8 3.582031 8 8zm0 0"/><path d="m259.3125 43.3125c0 4.417969-3.582031 8-8 8s-8-3.582031-8-8 3.582031-8 8-8 8 3.582031 8 8zm0 0"/></g></svg>