<?xml version="1.0" encoding="iso-8859-1"?>
<!-- Generator: Adobe Illustrator 19.0.0, SVG Export Plug-In . SVG Version: 6.00 Build 0)  -->
<svg version="1.1" id="Layer_1" xmlns="http://www.w3.org/2000/svg" xmlns:xlink="http://www.w3.org/1999/xlink" x="0px" y="0px"
	 viewBox="0 0 512 512" style="enable-background:new 0 0 512 512;" xml:space="preserve">
<path style="fill:#78909C;" d="M428.698,39.111h-110.73L296.635,7.619h-81.27l-21.333,31.492H83.302
	c-16.832,0-30.476,13.644-30.476,30.476v289.524c0,16.832,13.644,30.476,30.476,30.476h345.397
	c16.832,0,30.476-13.644,30.476-30.476V69.587C459.175,52.755,445.53,39.111,428.698,39.111z"/>
<path style="fill:#4A6068;" d="M256,339.81c-72.821,0-132.063-59.244-132.063-132.063S183.179,75.683,256,75.683
	s132.064,59.244,132.064,132.064S328.821,339.81,256,339.81z"/>
<path style="fill:#A0815C;" d="M459.175,69.587v103.619H52.825V69.587c0-16.833,13.643-30.476,30.476-30.476h110.73l21.333-31.492
	h81.27l21.333,31.492h110.73C445.531,39.111,459.175,52.754,459.175,69.587z"/>
<path style="fill:#806749;" d="M383.482,173.206H128.518C143.746,117.079,195.129,75.683,256,75.683
	S368.254,117.079,383.482,173.206z"/>
<path style="fill:#E0E0E0;" d="M284.444,49.778L284.444,49.778c0-8.696-7.05-15.746-15.746-15.746h-25.397
	c-8.696,0-15.746,7.05-15.746,15.746l0,0c0,8.696,7.05,15.746,15.746,15.746h25.397C277.394,65.524,284.444,58.474,284.444,49.778z"
	/>
<rect x="87.873" y="349.968" style="fill:#4A6068;" width="336.254" height="39.619"/>
<rect x="113.778" y="349.968" style="fill:#FFFFFF;" width="284.444" height="154.413"/>
<g>
	<rect x="113.778" y="349.968" style="fill:#E0E0E0;" width="284.444" height="30.476"/>
	<circle style="fill:#E0E0E0;" cx="256" cy="207.746" r="111.746"/>
</g>
<rect id="SVGCleanerId_0" x="87.873" y="342.349" width="336.254" height="15.238"/>
<rect x="69.079" y="57.397" style="fill:#806749;" width="106.667" height="60.952"/>
<rect x="84.317" y="72.635" style="fill:#FFC853;" width="76.19" height="30.476"/>
<path style="fill:#806749;" d="M384.508,145.27c-14.004,0-25.397-11.393-25.397-25.397V84.317c0-14.004,11.393-25.397,25.397-25.397
	h35.556c14.004,0,25.397,11.393,25.397,25.397v35.556c0,14.004-11.393,25.397-25.397,25.397H384.508z"/>
<path style="fill:#FFFFFF;" d="M420.064,130.032h-35.556c-5.611,0-10.159-4.548-10.159-10.159V84.317
	c0-5.611,4.548-10.159,10.159-10.159h35.556c5.611,0,10.159,4.548,10.159,10.159v35.556
	C430.222,125.484,425.674,130.032,420.064,130.032z"/>
<path style="fill:#4A6068;" d="M108.698,324.571c-16.805,0-30.476-13.672-30.476-30.476s13.672-30.476,30.476-30.476
	s30.476,13.672,30.476,30.476S125.503,324.571,108.698,324.571z"/>
<circle style="fill:#FC5649;" cx="108.698" cy="294.095" r="15.238"/>
<circle style="fill:#57565C;" cx="256" cy="207.746" r="81.27"/>
<g>
	<path style="fill:#898890;" d="M268.698,50.286h-25.397c-5.932,0-11.091-3.282-13.776-8.127c-1.253,2.258-1.97,4.854-1.97,7.619
		l0,0c0,8.696,7.05,15.746,15.746,15.746h25.397c8.696,0,15.746-7.05,15.746-15.746l0,0c0-2.765-0.718-5.361-1.97-7.619
		C279.79,47.003,274.63,50.286,268.698,50.286z"/>
	<rect x="146.286" y="349.968" style="fill:#898890;" width="219.429" height="81.27"/>
</g>
<rect x="146.286" y="349.968" style="fill:#57565C;" width="219.429" height="30.476"/>
<g>
	<path style="fill:#898890;" d="M335.777,223.309c-2.154,11.093-6.563,21.384-12.729,30.364L210.072,140.698
		c8.98-6.166,19.271-10.575,30.364-12.729L335.777,223.309z"/>
	<path style="fill:#898890;" d="M304.305,273.107c-8.645,6.4-18.611,11.124-29.399,13.694l-97.961-97.961
		c2.57-10.789,7.294-20.754,13.694-29.399L304.305,273.107z"/>
</g>
<path style="fill:#FFFFFF;" d="M212.825,207.746h-15.238c0-5.7,0.825-11.339,2.45-16.76l14.595,4.378
	C213.434,199.364,212.825,203.529,212.825,207.746z M220.153,183.713l-12.643-8.508c10.902-16.199,29.03-25.871,48.49-25.871v15.238
	C241.619,164.571,228.218,171.726,220.153,183.713z"/>
<path d="M428.698,31.492H322.01L300.677,0h-89.353l-21.333,31.492H83.302c-21.006,0-38.095,17.089-38.095,38.095v289.524
	c0,21.006,17.089,38.095,38.095,38.095v-15.238c-12.603,0-22.857-10.253-22.857-22.857V180.825h79.251
	c-2.002,8.654-3.061,17.666-3.061,26.921c0,65.818,53.547,119.365,119.365,119.365s119.365-53.547,119.365-119.365
	c0-9.255-1.059-18.266-3.061-26.921h79.251v178.286c0,12.604-10.254,22.857-22.857,22.857v15.238
	c21.006,0,38.095-17.089,38.095-38.095V69.587C466.794,48.581,449.705,31.492,428.698,31.492z M256,311.873
	c-57.416,0-104.127-46.711-104.127-104.127S198.584,103.619,256,103.619s104.127,46.711,104.127,104.127
	S313.416,311.873,256,311.873z M367.669,165.587C350.595,120.514,306.984,88.381,256,88.381s-94.595,32.133-111.669,77.206H60.444
	v-96c0-12.604,10.254-22.857,22.857-22.857h114.772l21.333-31.492h73.187l21.333,31.492h114.771
	c12.603,0,22.857,10.253,22.857,22.857v96H367.669z"/>
<g>
	<rect id="SVGCleanerId_0_1_" x="87.873" y="342.349" width="336.254" height="15.238"/>
</g>
<polygon points="390.603,496.762 121.397,496.762 121.397,368.254 106.159,368.254 106.159,512 405.841,512 405.841,368.254 
	390.603,368.254 "/>
<path d="M76.698,110.73h91.429V65.016H76.698V110.73z M91.937,80.254h60.952v15.238H91.937V80.254z"/>
<path d="M420.064,66.54h-35.556c-9.802,0-17.778,7.976-17.778,17.778v35.556c0,9.802,7.976,17.778,17.778,17.778h35.556
	c9.802,0,17.778-7.976,17.778-17.778V84.317C437.841,74.515,429.866,66.54,420.064,66.54z M422.603,119.873
	c0,1.4-1.139,2.54-2.54,2.54h-35.556c-1.401,0-2.54-1.14-2.54-2.54V84.317c0-1.4,1.139-2.54,2.54-2.54h35.556
	c1.401,0,2.54,1.14,2.54,2.54V119.873z"/>
<rect x="89.397" y="7.111" width="50.794" height="15.238"/>
<path d="M108.698,316.952c12.603,0,22.857-10.253,22.857-22.857c0-12.604-10.254-22.857-22.857-22.857s-22.857,10.253-22.857,22.857
	C85.841,306.699,96.095,316.952,108.698,316.952z M108.698,286.476c4.202,0,7.619,3.417,7.619,7.619
	c0,4.202-3.417,7.619-7.619,7.619s-7.619-3.417-7.619-7.619C101.079,289.894,104.497,286.476,108.698,286.476z"/>
<path d="M256,118.857c-49.014,0-88.889,39.875-88.889,88.889s39.875,88.889,88.889,88.889s88.889-39.875,88.889-88.889
	S305.014,118.857,256,118.857z M256,281.397c-40.612,0-73.651-33.039-73.651-73.651s33.039-73.651,73.651-73.651
	s73.651,33.039,73.651,73.651S296.612,281.397,256,281.397z"/>
<path d="M268.698,26.413h-25.397c-12.884,0-23.365,10.482-23.365,23.365s10.481,23.365,23.365,23.365h25.397
	c12.884,0,23.365-10.482,23.365-23.365S281.583,26.413,268.698,26.413z M268.698,57.905h-25.397c-4.481,0-8.127-3.646-8.127-8.127
	s3.646-8.127,8.127-8.127h25.397c4.481,0,8.127,3.646,8.127,8.127S273.179,57.905,268.698,57.905z"/>
<polygon points="138.667,368.254 138.667,438.857 373.333,438.857 373.333,368.254 358.095,368.254 358.095,423.619 
	153.905,423.619 153.905,368.254 "/>
<g>
</g>
<g>
</g>
<g>
</g>
<g>
</g>
<g>
</g>
<g>
</g>
<g>
</g>
<g>
</g>
<g>
</g>
<g>
</g>
<g>
</g>
<g>
</g>
<g>
</g>
<g>
</g>
<g>
</g>
</svg>
